<svg width="20" height="21" viewBox="0 0 20 21" fill="none" xmlns="http://www.w3.org/2000/svg">
<mask id="mask0_1225_3326" style="mask-type:alpha" maskUnits="userSpaceOnUse" x="0" y="0" width="20" height="21">
<rect y="0.5" width="20" height="20" fill="#D9D9D9"/>
</mask>
<g mask="url(#mask0_1225_3326)">
<path d="M9.16699 14.6667H10.8337V11.3334H14.167V9.66675H10.8337V6.33341H9.16699V9.66675H5.83366V11.3334H9.16699V14.6667ZM10.0003 18.8334C8.84755 18.8334 7.76421 18.6145 6.75033 18.1767C5.73644 17.7395 4.85449 17.1459 4.10449 16.3959C3.35449 15.6459 2.76088 14.764 2.32366 13.7501C1.88588 12.7362 1.66699 11.6529 1.66699 10.5001C1.66699 9.3473 1.88588 8.26397 2.32366 7.25008C2.76088 6.23619 3.35449 5.35425 4.10449 4.60425C4.85449 3.85425 5.73644 3.26036 6.75033 2.82258C7.76421 2.38536 8.84755 2.16675 10.0003 2.16675C11.1531 2.16675 12.2364 2.38536 13.2503 2.82258C14.2642 3.26036 15.1462 3.85425 15.8962 4.60425C16.6462 5.35425 17.2398 6.23619 17.677 7.25008C18.1148 8.26397 18.3337 9.3473 18.3337 10.5001C18.3337 11.6529 18.1148 12.7362 17.677 13.7501C17.2398 14.764 16.6462 15.6459 15.8962 16.3959C15.1462 17.1459 14.2642 17.7395 13.2503 18.1767C12.2364 18.6145 11.1531 18.8334 10.0003 18.8334ZM10.0003 17.1667C11.8614 17.1667 13.4378 16.5209 14.7295 15.2292C16.0212 13.9376 16.667 12.3612 16.667 10.5001C16.667 8.63897 16.0212 7.06258 14.7295 5.77091C13.4378 4.47925 11.8614 3.83341 10.0003 3.83341C8.13921 3.83341 6.56283 4.47925 5.27116 5.77091C3.97949 7.06258 3.33366 8.63897 3.33366 10.5001C3.33366 12.3612 3.97949 13.9376 5.27116 15.2292C6.56283 16.5209 8.13921 17.1667 10.0003 17.1667Z" fill="#2C2C2E"/>
</g>
</svg>
