<svg width="24" height="24" viewBox="0 0 24 24" fill="none" xmlns="http://www.w3.org/2000/svg">
<path d="M20.5714 17.1428C19.6343 18.0799 18.5685 18.7855 17.3739 19.2596C16.1799 19.7341 14.96 19.9711 13.7143 19.9707C12.4686 19.9711 11.2485 19.7343 10.0539 19.2603C8.85989 18.7858 7.79429 18.0799 6.85714 17.1428C5.90857 16.1942 5.2 15.1259 4.73143 13.9378C4.26286 12.7487 4.0288 11.5314 4.02926 10.2856C4.0288 9.03993 4.2656 7.81982 4.73966 6.6253C5.21417 5.43124 5.92 4.36565 6.85714 3.4285C7.47428 2.81136 8.15428 2.29136 8.89714 1.8685C9.64 1.44564 10.4114 1.13136 11.2114 0.925645C10.7771 2.57136 10.4319 4.16346 10.4319 5.86733C10.4319 7.80682 11.0914 9.92094 12.3714 11.2009C13.6514 12.4809 15.7655 13.6253 17.705 13.6253C19.6445 13.6253 21.4286 13.2228 23.0743 12.7885C22.8686 13.5885 22.5543 14.3599 22.1314 15.1028C21.7086 15.8456 21.1886 16.5256 20.5714 17.1428Z" fill="#8C6DEC"/>
</svg>
