<svg width="24" height="24" viewBox="0 0 24 24" fill="none" xmlns="http://www.w3.org/2000/svg">
<path d="M12.0006 3.00058C7.02831 3.00058 3 7.13383 3 12.2279C3 16.3069 5.57866 19.7643 9.15245 20.984C9.60416 21.0711 9.7673 20.7856 9.7673 20.5388C9.7673 20.3196 9.76224 19.74 9.75886 18.9707C7.25389 19.5267 6.72623 17.7302 6.72623 17.7302C6.31614 16.6668 5.72436 16.3813 5.72436 16.3813C4.90981 15.8109 5.78905 15.8231 5.78905 15.8231C6.69136 15.8859 7.16614 16.7717 7.16614 16.7717C7.96887 18.1835 9.27227 17.7752 9.78811 17.5376C9.86687 16.943 10.1014 16.5341 10.3568 16.3063C8.35871 16.0751 6.25764 15.2821 6.25764 11.7463C6.25764 10.7365 6.60641 9.91413 7.18301 9.26822C7.08344 9.03696 6.77855 8.09693 7.26233 6.82587C7.26233 6.82587 8.01556 6.57961 9.73748 7.77224C10.4581 7.56751 11.2231 7.46544 11.9876 7.46025C12.7527 7.46544 13.5172 7.56809 14.2378 7.77224C15.9496 6.57961 16.7022 6.82587 16.7022 6.82587C17.1854 8.09693 16.8806 9.03638 16.7928 9.26822C17.3638 9.91413 17.7125 10.7371 17.7125 11.7463C17.7125 15.2902 15.6087 16.0716 13.6083 16.2971C13.9211 16.5734 14.2141 17.1414 14.2141 18.0036C14.2141 19.2377 14.2029 20.232 14.2029 20.5324C14.2029 20.7724 14.3604 21.0607 14.8239 20.9679C18.4242 19.7608 21 16.3006 21 12.2273C21 7.13325 16.9717 3 11.9994 3L12.0006 3.00058Z" fill="#F4F4F4"/>
</svg>
