<svg width="24" height="24" viewBox="0 0 24 24" fill="none" xmlns="http://www.w3.org/2000/svg">
<mask id="mask0_479_387" style="mask-type:alpha" maskUnits="userSpaceOnUse" x="0" y="0" width="24" height="24">
<rect width="24" height="24" fill="#D9D9D9"/>
</mask>
<g mask="url(#mask0_479_387)">
<path d="M11.9091 4.30909C11.3568 4.30909 10.9091 3.86138 10.9091 3.30909V1C10.9091 0.447715 11.3568 0 11.9091 0H12.0909C12.6432 0 13.0909 0.447715 13.0909 1V3.30909C13.0909 3.86138 12.6432 4.30909 12.0909 4.30909H11.9091ZM11.9091 24C11.3568 24 10.9091 23.5523 10.9091 23V20.6909C10.9091 20.1386 11.3568 19.6909 11.9091 19.6909H12.0909C12.6432 19.6909 13.0909 20.1386 13.0909 20.6909V23C13.0909 23.5523 12.6432 24 12.0909 24H11.9091ZM20.6909 13.0909C20.1386 13.0909 19.6909 12.6432 19.6909 12.0909V11.9091C19.6909 11.3568 20.1386 10.9091 20.6909 10.9091H23C23.5523 10.9091 24 11.3568 24 11.9091V12.0909C24 12.6432 23.5523 13.0909 23 13.0909H20.6909ZM1 13.0909C0.447715 13.0909 0 12.6432 0 12.0909V11.9091C0 11.3568 0.447715 10.9091 1 10.9091H3.36364C3.91592 10.9091 4.36364 11.3568 4.36364 11.9091V12.0909C4.36364 12.6432 3.91592 13.0909 3.36364 13.0909H1ZM19.7979 5.82078C19.4089 6.21955 18.769 6.2235 18.375 5.82956L18.1704 5.62498C17.7765 5.23104 17.7804 4.59114 18.1792 4.20209L18.9839 3.41703C19.3758 3.03472 20.0022 3.03858 20.3893 3.4257L20.5743 3.61066C20.9614 3.99778 20.9653 4.62422 20.583 5.01609L19.7979 5.82078ZM5.01409 20.6418C4.61857 20.9958 4.01542 20.9791 3.6401 20.6037L3.45724 20.4209C3.0579 20.0215 3.06825 19.371 3.48009 18.9845L4.40424 18.1174C4.79796 17.7479 5.41384 17.7577 5.79561 18.1395L5.99962 18.3435C6.40552 18.7494 6.38715 19.413 5.95939 19.7958L5.01409 20.6418ZM20.3893 20.5743C20.0022 20.9614 19.3758 20.9653 18.9839 20.583L18.1792 19.7979C17.7804 19.4089 17.7765 18.769 18.1704 18.375L18.375 18.1704C18.769 17.7765 19.4089 17.7804 19.7979 18.1792L20.583 18.9839C20.9653 19.3758 20.9614 20.0022 20.5743 20.3893L20.3893 20.5743ZM5.62498 5.82956C5.23104 6.2235 4.59114 6.21955 4.20209 5.82078L3.41703 5.01609C3.03472 4.62422 3.03858 3.99778 3.4257 3.61066L3.61066 3.4257C3.99778 3.03858 4.62422 3.03472 5.01609 3.41703L5.82078 4.20209C6.21955 4.59114 6.2235 5.23104 5.82956 5.62498L5.62498 5.82956ZM12 18.5455C10.1818 18.5455 8.63636 17.9091 7.36364 16.6364C6.09091 15.3636 5.45455 13.8182 5.45455 12C5.45455 10.1818 6.09091 8.63636 7.36364 7.36364C8.63636 6.09091 10.1818 5.45455 12 5.45455C13.8182 5.45455 15.3636 6.09091 16.6364 7.36364C17.9091 8.63636 18.5455 10.1818 18.5455 12C18.5455 13.8182 17.9091 15.3636 16.6364 16.6364C15.3636 17.9091 13.8182 18.5455 12 18.5455ZM12 16.3636C13.2182 16.3636 14.2502 15.9407 15.096 15.0949C15.9411 14.2498 16.3636 13.2182 16.3636 12C16.3636 10.7818 15.9411 9.74982 15.096 8.904C14.2502 8.05891 13.2182 7.63636 12 7.63636C10.7818 7.63636 9.75018 8.05891 8.90509 8.904C8.05927 9.74982 7.63636 10.7818 7.63636 12C7.63636 13.2182 8.05927 14.2498 8.90509 15.0949C9.75018 15.9407 10.7818 16.3636 12 16.3636Z" fill="#9374EC"/>
</g>
</svg>
