<svg width="197" height="24" viewBox="0 0 197 24" fill="none" xmlns="http://www.w3.org/2000/svg">
<path fill-rule="evenodd" clip-rule="evenodd" d="M13.5309 0.850459C12.4395 -0.283486 10.668 -0.283486 9.57662 0.850459L0.877217 9.88916C0.677136 10.097 0.513736 10.3287 0.387016 10.5754C-0.24622 11.6894 -0.10238 13.1493 0.818534 14.1062L7.13133 20.6652L7.11707 20.68L9.48963 23.1451C10.0443 23.7214 10.7748 24.0049 11.5023 23.9953C12.2156 23.9934 12.9283 23.71 13.4722 23.1449L15.8448 20.6798L15.8307 20.6652L19.7735 16.5687L26.1066 23.1488C26.6618 23.7257 27.393 24.0091 28.1212 23.999C28.8527 24.0118 29.5881 23.7285 30.1459 23.149L36.5088 16.5378L42.8318 23.1074C43.9231 24.2413 45.6947 24.2413 46.786 23.1074L47.1815 22.6965C48.2728 21.5626 48.2728 19.722 47.1815 18.5881L38.4821 9.54935C37.3907 8.41541 35.6192 8.41541 34.5278 9.54935L32.1552 12.0145L32.1591 12.0185L28.1263 16.2086L21.7569 9.59075C21.4755 9.29835 21.1489 9.08135 20.8003 8.93975C19.7952 8.52721 18.606 8.74297 17.7936 9.58705L11.481 16.1458L7.51791 12.0282L13.9263 5.36981C15.0177 4.23586 15.0177 2.39525 13.9263 1.26131L13.5309 0.850459Z" fill="#4D30DC"/>
<path d="M64.0563 20.0549C62.9924 20.0549 62.0054 19.8906 61.0953 19.5622C60.198 19.2212 59.4161 18.7412 58.7496 18.1222C58.0959 17.5033 57.5831 16.777 57.2114 15.9433C56.8397 15.097 56.6538 14.1685 56.6538 13.158C56.6538 12.1475 56.8397 11.2254 57.2114 10.3917C57.5831 9.54538 58.0959 8.81275 58.7496 8.1938C59.4161 7.57486 60.198 7.10117 61.0953 6.77275C62.0054 6.4317 62.9924 6.26117 64.0563 6.26117C65.2997 6.26117 66.4084 6.47591 67.3826 6.90538C68.3696 7.33486 69.19 7.9538 69.8437 8.76222L67.4211 10.9222C66.9853 10.417 66.5046 10.0317 65.979 9.76644C65.4663 9.50117 64.8895 9.36854 64.2486 9.36854C63.6974 9.36854 63.1911 9.45696 62.7296 9.6338C62.2682 9.81065 61.8708 10.0696 61.5375 10.4106C61.2171 10.7391 60.9607 11.137 60.7684 11.6043C60.589 12.0717 60.4993 12.5896 60.4993 13.158C60.4993 13.7264 60.589 14.2443 60.7684 14.7117C60.9607 15.1791 61.2171 15.5833 61.5375 15.9243C61.8708 16.2528 62.2682 16.5054 62.7296 16.6822C63.1911 16.8591 63.6974 16.9475 64.2486 16.9475C64.8895 16.9475 65.4663 16.8149 65.979 16.5496C66.5046 16.2843 66.9853 15.8991 67.4211 15.3938L69.8437 17.5538C69.19 18.3496 68.3696 18.9685 67.3826 19.4106C66.4084 19.8401 65.2997 20.0549 64.0563 20.0549ZM76.26 19.9601C75.1191 19.9601 74.1065 19.7328 73.2221 19.278C72.3376 18.8233 71.639 18.198 71.1263 17.4022C70.6264 16.5938 70.3764 15.6717 70.3764 14.6359C70.3764 13.6001 70.6264 12.6843 71.1263 11.8885C71.639 11.0928 72.3376 10.4738 73.2221 10.0317C74.1065 9.57696 75.1191 9.34959 76.26 9.34959C77.4008 9.34959 78.4134 9.57696 79.2979 10.0317C80.1951 10.4738 80.8937 11.0928 81.3936 11.8885C81.8936 12.6843 82.1435 13.6001 82.1435 14.6359C82.1435 15.6717 81.8936 16.5938 81.3936 17.4022C80.8937 18.198 80.1951 18.8233 79.2979 19.278C78.4134 19.7328 77.4008 19.9601 76.26 19.9601ZM76.26 17.0991C76.683 17.0991 77.0547 17.0043 77.3751 16.8149C77.7084 16.6254 77.9712 16.3475 78.1635 15.9812C78.3557 15.6022 78.4519 15.1538 78.4519 14.6359C78.4519 14.118 78.3557 13.6822 78.1635 13.3285C77.9712 12.9622 77.7084 12.6843 77.3751 12.4949C77.0547 12.3054 76.683 12.2106 76.26 12.2106C75.8498 12.2106 75.4781 12.3054 75.1448 12.4949C74.8243 12.6843 74.5616 12.9622 74.3565 13.3285C74.1642 13.6822 74.0681 14.118 74.0681 14.6359C74.0681 15.1538 74.1642 15.6022 74.3565 15.9812C74.5616 16.3475 74.8243 16.6254 75.1448 16.8149C75.4781 17.0043 75.8498 17.0991 76.26 17.0991ZM88.3734 19.9601C87.4248 19.9601 86.5596 19.7454 85.7777 19.3159C85.0086 18.8738 84.3933 18.2612 83.9319 17.478C83.4704 16.6822 83.2397 15.7349 83.2397 14.6359C83.2397 13.5496 83.4704 12.6149 83.9319 11.8317C84.3933 11.0359 85.0086 10.4233 85.7777 9.9938C86.5596 9.56433 87.4248 9.34959 88.3734 9.34959C89.2706 9.34959 90.0269 9.53907 90.6422 9.91801C91.2703 10.297 91.7445 10.878 92.065 11.6612C92.3855 12.4443 92.5457 13.4359 92.5457 14.6359C92.5457 15.8612 92.3919 16.8654 92.0842 17.6485C91.7766 18.4317 91.3151 19.0128 90.6999 19.3917C90.0846 19.7706 89.3091 19.9601 88.3734 19.9601ZM89.1425 17.0991C89.5526 17.0991 89.918 17.0043 90.2384 16.8149C90.5717 16.6254 90.8345 16.3475 91.0267 15.9812C91.219 15.6022 91.3151 15.1538 91.3151 14.6359C91.3151 14.118 91.219 13.6822 91.0267 13.3285C90.8345 12.9622 90.5717 12.6843 90.2384 12.4949C89.918 12.3054 89.5526 12.2106 89.1425 12.2106C88.7195 12.2106 88.3413 12.3054 88.008 12.4949C87.6876 12.6843 87.4312 12.9622 87.239 13.3285C87.0467 13.6822 86.9505 14.118 86.9505 14.6359C86.9505 15.1538 87.0467 15.6022 87.239 15.9812C87.4312 16.3475 87.6876 16.6254 88.008 16.8149C88.3413 17.0043 88.7195 17.0991 89.1425 17.0991ZM91.4305 19.7896V18.0275L91.4497 14.6359L91.2575 11.2443V5.73065H94.9106V19.7896H91.4305ZM97.2611 19.7896V9.52012H100.914V19.7896H97.2611ZM99.0877 8.38328C98.4211 8.38328 97.8827 8.20012 97.4726 7.8338C97.0624 7.46749 96.8573 7.01275 96.8573 6.46959C96.8573 5.92643 97.0624 5.4717 97.4726 5.10538C97.8827 4.73907 98.4211 4.55591 99.0877 4.55591C99.7542 4.55591 100.293 4.73275 100.703 5.08643C101.113 5.42749 101.318 5.86959 101.318 6.41275C101.318 6.98117 101.113 7.45486 100.703 7.8338C100.305 8.20012 99.767 8.38328 99.0877 8.38328ZM110.076 9.34959C110.883 9.34959 111.614 9.5138 112.268 9.84222C112.921 10.158 113.434 10.6506 113.806 11.3201C114.19 11.9896 114.383 12.8549 114.383 13.9159V19.7896H110.729V14.5033C110.729 13.7706 110.576 13.2401 110.268 12.9117C109.973 12.5706 109.556 12.4001 109.018 12.4001C108.634 12.4001 108.281 12.4885 107.961 12.6654C107.64 12.8296 107.39 13.0885 107.211 13.4422C107.031 13.7959 106.942 14.257 106.942 14.8254V19.7896H103.288V9.52012H106.769V12.438L106.096 11.5854C106.493 10.8401 107.038 10.2843 107.73 9.91801C108.422 9.53907 109.204 9.34959 110.076 9.34959ZM121.903 23.6359C120.903 23.6359 119.948 23.5222 119.038 23.2949C118.141 23.0675 117.372 22.7327 116.731 22.2906L118.057 19.7706C118.493 20.1117 119.031 20.377 119.672 20.5664C120.326 20.7685 120.961 20.8696 121.576 20.8696C122.563 20.8696 123.274 20.6549 123.71 20.2254C124.146 19.8085 124.364 19.1959 124.364 18.3875V17.1749L124.556 14.2949L124.537 11.3959V9.52012H128.017V17.9138C128.017 19.8591 127.485 21.2991 126.421 22.2338C125.357 23.1685 123.851 23.6359 121.903 23.6359ZM121.268 19.2591C120.345 19.2591 119.493 19.057 118.711 18.6528C117.942 18.2359 117.32 17.6612 116.846 16.9285C116.385 16.1833 116.154 15.3054 116.154 14.2949C116.154 13.2843 116.385 12.4128 116.846 11.6801C117.32 10.9349 117.942 10.3601 118.711 9.95591C119.493 9.5517 120.345 9.34959 121.268 9.34959C122.153 9.34959 122.909 9.52643 123.537 9.88012C124.165 10.2212 124.639 10.758 124.96 11.4906C125.293 12.2233 125.46 13.158 125.46 14.2949C125.46 15.4317 125.293 16.3664 124.96 17.0991C124.639 17.8317 124.165 18.3749 123.537 18.7285C122.909 19.0822 122.153 19.2591 121.268 19.2591ZM122.133 16.398C122.569 16.398 122.954 16.3096 123.287 16.1328C123.633 15.9559 123.902 15.7096 124.095 15.3938C124.3 15.078 124.402 14.7117 124.402 14.2949C124.402 13.878 124.3 13.5117 124.095 13.1959C123.902 12.8801 123.633 12.6401 123.287 12.4759C122.954 12.2991 122.569 12.2106 122.133 12.2106C121.698 12.2106 121.307 12.2991 120.961 12.4759C120.615 12.6401 120.339 12.8801 120.134 13.1959C119.942 13.5117 119.845 13.878 119.845 14.2949C119.845 14.7117 119.942 15.078 120.134 15.3938C120.339 15.7096 120.615 15.9559 120.961 16.1328C121.307 16.3096 121.698 16.398 122.133 16.398ZM136.133 19.7896V6.52643H139.267L144.843 15.5454H143.189L148.611 6.52643H151.745L151.784 19.7896H148.284L148.246 11.7749H148.842L144.785 18.4822H143.093L138.921 11.7749H139.651V19.7896H136.133ZM160.669 19.7896V17.8759L160.419 17.4022V13.878C160.419 13.3096 160.239 12.8738 159.88 12.5706C159.534 12.2549 158.977 12.097 158.208 12.097C157.708 12.097 157.201 12.1791 156.689 12.3433C156.176 12.4949 155.74 12.7096 155.381 12.9875L154.151 10.5433C154.74 10.1643 155.445 9.8738 156.266 9.6717C157.099 9.45696 157.926 9.34959 158.746 9.34959C160.438 9.34959 161.745 9.73486 162.668 10.5054C163.604 11.2633 164.072 12.457 164.072 14.0864V19.7896H160.669ZM157.592 19.9601C156.759 19.9601 156.054 19.8212 155.477 19.5433C154.9 19.2654 154.458 18.8864 154.151 18.4064C153.856 17.9264 153.708 17.3896 153.708 16.7959C153.708 16.1643 153.869 15.6212 154.189 15.1664C154.522 14.6991 155.029 14.3454 155.708 14.1054C156.387 13.8528 157.265 13.7264 158.342 13.7264H160.803V15.6022H158.842C158.252 15.6022 157.836 15.697 157.592 15.8864C157.362 16.0759 157.246 16.3285 157.246 16.6443C157.246 16.9601 157.368 17.2128 157.612 17.4022C157.855 17.5917 158.188 17.6864 158.611 17.6864C159.009 17.6864 159.368 17.5917 159.688 17.4022C160.021 17.2001 160.265 16.897 160.419 16.4928L160.919 17.8191C160.726 18.5264 160.348 19.0633 159.784 19.4296C159.233 19.7833 158.502 19.9601 157.592 19.9601ZM171.03 19.9601C169.697 19.9601 168.659 19.638 167.916 18.9938C167.172 18.337 166.8 17.3517 166.8 16.038V7.22749H170.454V16.0001C170.454 16.3664 170.556 16.657 170.761 16.8717C170.966 17.0738 171.229 17.1749 171.55 17.1749C171.985 17.1749 172.357 17.0675 172.665 16.8528L173.568 19.3728C173.261 19.5749 172.883 19.7201 172.434 19.8085C171.985 19.9096 171.518 19.9601 171.03 19.9601ZM165.281 12.5896V9.89907H172.838V12.5896H165.281ZM180.138 19.9601C178.907 19.9601 177.83 19.7328 176.908 19.278C175.997 18.8106 175.286 18.1791 174.773 17.3833C174.273 16.5749 174.023 15.6591 174.023 14.6359C174.023 13.6128 174.267 12.7033 174.754 11.9075C175.254 11.0991 175.94 10.4738 176.811 10.0317C177.683 9.57696 178.664 9.34959 179.753 9.34959C180.779 9.34959 181.714 9.55801 182.56 9.97486C183.406 10.3791 184.079 10.9791 184.579 11.7749C185.079 12.5706 185.329 13.537 185.329 14.6738C185.329 14.8001 185.323 14.9454 185.31 15.1096C185.297 15.2738 185.284 15.4254 185.271 15.5643H177.023V13.6696H183.329L181.945 14.2001C181.958 13.7327 181.868 13.3285 181.676 12.9875C181.496 12.6464 181.24 12.3812 180.907 12.1917C180.586 12.0022 180.208 11.9075 179.772 11.9075C179.337 11.9075 178.952 12.0022 178.619 12.1917C178.298 12.3812 178.048 12.6528 177.869 13.0064C177.689 13.3475 177.6 13.7517 177.6 14.2191V14.7685C177.6 15.2738 177.702 15.7096 177.907 16.0759C178.125 16.4422 178.433 16.7264 178.83 16.9285C179.228 17.118 179.702 17.2128 180.253 17.2128C180.766 17.2128 181.202 17.1433 181.561 17.0043C181.932 16.8528 182.298 16.6254 182.657 16.3222L184.579 18.2928C184.079 18.8359 183.464 19.2528 182.733 19.5433C182.003 19.8212 181.138 19.9601 180.138 19.9601ZM190.801 19.9601C189.917 19.9601 189.052 19.8591 188.206 19.657C187.373 19.4549 186.7 19.2022 186.187 18.8991L187.283 16.4359C187.77 16.7264 188.34 16.9601 188.994 17.137C189.648 17.3012 190.289 17.3833 190.917 17.3833C191.532 17.3833 191.955 17.3201 192.186 17.1938C192.429 17.0675 192.551 16.897 192.551 16.6822C192.551 16.4801 192.436 16.3349 192.205 16.2464C191.987 16.1454 191.692 16.0696 191.321 16.0191C190.962 15.9685 190.564 15.9117 190.128 15.8485C189.693 15.7854 189.25 15.7033 188.802 15.6022C188.366 15.4885 187.962 15.3243 187.59 15.1096C187.232 14.8822 186.943 14.5791 186.725 14.2001C186.507 13.8212 186.398 13.3412 186.398 12.7601C186.398 12.1033 186.591 11.5222 186.975 11.017C187.373 10.4991 187.949 10.0949 188.706 9.80433C189.462 9.50117 190.385 9.34959 191.474 9.34959C192.205 9.34959 192.942 9.42538 193.686 9.57696C194.442 9.71591 195.076 9.93064 195.589 10.2212L194.493 12.6654C193.98 12.3749 193.468 12.1791 192.955 12.078C192.442 11.9643 191.955 11.9075 191.494 11.9075C190.878 11.9075 190.443 11.977 190.186 12.1159C189.943 12.2549 189.821 12.4254 189.821 12.6275C189.821 12.8296 189.93 12.9875 190.148 13.1012C190.366 13.2022 190.654 13.2843 191.013 13.3475C191.385 13.398 191.788 13.4549 192.224 13.518C192.66 13.5685 193.096 13.6506 193.532 13.7643C193.98 13.878 194.384 14.0485 194.743 14.2759C195.115 14.4906 195.41 14.7875 195.627 15.1664C195.845 15.5328 195.954 16.0064 195.954 16.5875C195.954 17.2191 195.756 17.7875 195.358 18.2928C194.974 18.798 194.397 19.2022 193.628 19.5054C192.872 19.8085 191.929 19.9601 190.801 19.9601Z" fill="#4D30DC"/>
</svg>
