<svg width="34" height="17" viewBox="0 0 34 17" fill="none" xmlns="http://www.w3.org/2000/svg">
<path fill-rule="evenodd" clip-rule="evenodd" d="M9.58535 0.602408C8.81229 -0.200803 7.55747 -0.200803 6.78441 0.602409L0.622338 7.00482C0.48061 7.15207 0.364866 7.31615 0.275105 7.49089C-0.173428 8.27998 -0.0715388 9.31412 0.580772 9.99188L5.05233 14.6378L5.04223 14.6483L6.7228 16.3944C7.11572 16.8027 7.6331 17.0034 8.14843 16.9967C8.65369 16.9953 9.15856 16.7945 9.54379 16.3943L11.2244 14.6482L11.2144 14.6378L14.0072 11.7361L18.4932 16.3971C18.8864 16.8057 19.4044 17.0064 19.9202 16.9993C20.4383 17.0084 20.9592 16.8077 21.3543 16.3972L25.8614 11.7143L30.3401 16.3677C31.1132 17.1709 32.368 17.1709 33.1411 16.3677L33.4212 16.0767C34.1942 15.2735 34.1942 13.9697 33.4212 13.1665L27.2591 6.76412C26.486 5.96091 25.2312 5.96091 24.4582 6.76412L22.7776 8.51023L22.7804 8.5131L19.9238 11.4811L15.4121 6.79344C15.2128 6.58632 14.9814 6.4326 14.7345 6.3323C14.0226 6.04011 13.1802 6.19295 12.6048 6.79083L8.13337 11.4366L5.32616 8.51994L9.86545 3.80361C10.6385 3.0004 10.6385 1.69664 9.86545 0.893427L9.58535 0.602408Z" fill="#4D30DC"/>
</svg>
