<svg width="24" height="24" viewBox="0 0 24 24" fill="none" xmlns="http://www.w3.org/2000/svg">
<mask id="mask0_632_796" style="mask-type:alpha" maskUnits="userSpaceOnUse" x="0" y="0" width="24" height="24">
<rect width="24" height="24" fill="#D9D9D9"/>
</mask>
<g mask="url(#mask0_632_796)">
<mask id="mask1_632_796" style="mask-type:alpha" maskUnits="userSpaceOnUse" x="0" y="0" width="24" height="24">
<rect width="24" height="24" fill="#D9D9D9"/>
</mask>
<g mask="url(#mask1_632_796)">
<path d="M12.6675 20.4014C12.2877 20.742 11.7123 20.742 11.3325 20.4014L10.55 19.6999C8.86667 18.1832 7.475 16.8749 6.375 15.7749C5.275 14.6749 4.4 13.6872 3.75 12.8119C3.1 11.9372 2.646 11.1332 2.388 10.3999C2.12933 9.66657 2 8.91657 2 8.1499C2 6.58324 2.525 5.2749 3.575 4.2249C4.625 3.1749 5.93333 2.6499 7.5 2.6499C8.36667 2.6499 9.19167 2.83324 9.975 3.1999C10.7583 3.56657 11.4333 4.08324 12 4.7499C12.5667 4.08324 13.2417 3.56657 14.025 3.1999C14.8083 2.83324 15.6333 2.6499 16.5 2.6499C18.0667 2.6499 19.375 3.1749 20.425 4.2249C21.475 5.2749 22 6.58324 22 8.1499C22 8.91657 21.871 9.66657 21.613 10.3999C21.3543 11.1332 20.9 11.9372 20.25 12.8119C19.6 13.6872 18.725 14.6749 17.625 15.7749C16.525 16.8749 15.1333 18.1832 13.45 19.6999L12.6675 20.4014ZM12 18.2999C13.6 16.8666 14.9167 15.6372 15.95 14.6119C16.9833 13.5872 17.8 12.6959 18.4 11.9379C19 11.1792 19.4167 10.5039 19.65 9.9119C19.8833 9.32057 20 8.73324 20 8.1499C20 7.1499 19.6667 6.31657 19 5.6499C18.3333 4.98324 17.5 4.6499 16.5 4.6499C15.7167 4.6499 14.9917 4.87057 14.325 5.3119C13.8742 5.6108 13.5186 5.96487 13.2583 6.37413C13.0331 6.72835 12.6708 6.9999 12.251 6.9999H11.749C11.3292 6.9999 10.9669 6.72835 10.7417 6.37413C10.4814 5.96487 10.1258 5.6108 9.675 5.3119C9.00833 4.87057 8.28333 4.6499 7.5 4.6499C6.5 4.6499 5.66667 4.98324 5 5.6499C4.33333 6.31657 4 7.1499 4 8.1499C4 8.73324 4.11667 9.32057 4.35 9.9119C4.58333 10.5039 5 11.1792 5.6 11.9379C6.2 12.6959 7.01667 13.5872 8.05 14.6119C9.08333 15.6372 10.4 16.8666 12 18.2999Z" fill="#8BAA00"/>
</g>
</g>
</svg>
