<svg width="20" height="21" viewBox="0 0 20 21" fill="none" xmlns="http://www.w3.org/2000/svg">
<mask id="mask0_1225_3320" style="mask-type:alpha" maskUnits="userSpaceOnUse" x="0" y="0" width="20" height="21">
<rect y="0.5" width="20" height="20" fill="#D9D9D9"/>
</mask>
<g mask="url(#mask0_1225_3320)">
<path d="M10.8327 11.3332H14.166V9.6665H10.8327H5.83268V11.3332H10.8327ZM9.99935 18.8332C8.84657 18.8332 7.76324 18.6143 6.74935 18.1765C5.73546 17.7393 4.85352 17.1457 4.10352 16.3957C3.35352 15.6457 2.7599 14.7637 2.32268 13.7498C1.8849 12.7359 1.66602 11.6526 1.66602 10.4998C1.66602 9.34706 1.8849 8.26373 2.32268 7.24984C2.7599 6.23595 3.35352 5.354 4.10352 4.604C4.85352 3.854 5.73546 3.26011 6.74935 2.82234C7.76324 2.38511 8.84657 2.1665 9.99935 2.1665C11.1521 2.1665 12.2355 2.38511 13.2493 2.82234C14.2632 3.26011 15.1452 3.854 15.8952 4.604C16.6452 5.354 17.2388 6.23595 17.676 7.24984C18.1138 8.26373 18.3327 9.34706 18.3327 10.4998C18.3327 11.6526 18.1138 12.7359 17.676 13.7498C17.2388 14.7637 16.6452 15.6457 15.8952 16.3957C15.1452 17.1457 14.2632 17.7393 13.2493 18.1765C12.2355 18.6143 11.1521 18.8332 9.99935 18.8332ZM9.99935 17.1665C11.8605 17.1665 13.4368 16.5207 14.7285 15.229C16.0202 13.9373 16.666 12.3609 16.666 10.4998C16.666 8.63873 16.0202 7.06234 14.7285 5.77067C13.4368 4.479 11.8605 3.83317 9.99935 3.83317C8.13824 3.83317 6.56185 4.479 5.27018 5.77067C3.97852 7.06234 3.33268 8.63873 3.33268 10.4998C3.33268 12.3609 3.97852 13.9373 5.27018 15.229C6.56185 16.5207 8.13824 17.1665 9.99935 17.1665Z" fill="#2C2C2E"/>
</g>
</svg>
